pose17.2
version=1
nRows=4
nColumns=213
inDegrees=yes
endheader
time	platform_rx	platform_ry	platform_rz	platform_ty	pelvis_tilt	pelvis_list	pelvis_rotation	pelvis_tx	pelvis_ty	pelvis_tz	hip_flexion_r	hip_adduction_r	hip_rotation_r	knee_angle_r	knee_angle_r_beta	ankle_angle_r	subtalar_angle_r	mtp_angle_r	hip_flexion_l	hip_adduction_l	hip_rotation_l	knee_angle_l	knee_angle_l_beta	ankle_angle_l	subtalar_angle_l	mtp_angle_l	lumbar_extension	lumbar_bending	lumbar_rotation	arm_flex_r	arm_add_r	arm_rot_r	elbow_flex_r	pro_sup_r	wrist_flex_r	wrist_dev_r	arm_flex_l	arm_add_l	arm_rot_l	elbow_flex_l	pro_sup_l	wrist_flex_l	wrist_dev_l	platform_rx_u	platform_ry_u	platform_rz_u	platform_ty_u	pelvis_tilt_u	pelvis_list_u	pelvis_rotation_u	pelvis_tx_u	pelvis_ty_u	pelvis_tz_u	hip_flexion_r_u	hip_adduction_r_u	hip_rotation_r_u	knee_angle_r_u	knee_angle_r_beta_u	ankle_angle_r_u	subtalar_angle_r_u	mtp_angle_r_u	hip_flexion_l_u	hip_adduction_l_u	hip_rotation_l_u	knee_angle_l_u	knee_angle_l_beta_u	ankle_angle_l_u	subtalar_angle_l_u	mtp_angle_l_u	lumbar_extension_u	lumbar_bending_u	lumbar_rotation_u	arm_flex_r_u	arm_add_r_u	arm_rot_r_u	elbow_flex_r_u	pro_sup_r_u	wrist_flex_r_u	wrist_dev_r_u	arm_flex_l_u	arm_add_l_u	arm_rot_l_u	elbow_flex_l_u	pro_sup_l_u	wrist_flex_l_u	wrist_dev_l_u	addbrev_r.activation	addlong_r.activation	addlong_r.fiber_length	addmagDist_r.activation	addmagIsch_r.activation	addmagIsch_r.fiber_length	addmagMid_r.activation	addmagProx_r.activation	bflh_r.activation	bflh_r.fiber_length	bfsh_r.activation	edl_r.activation	edl_r.fiber_length	ehl_r.activation	ehl_r.fiber_length	fdl_r.activation	fdl_r.fiber_length	fhl_r.activation	fhl_r.fiber_length	gaslat_r.activation	gaslat_r.fiber_length	gasmed_r.activation	gasmed_r.fiber_length	glmax1_r.activation	glmax2_r.activation	glmax3_r.activation	glmed1_r.activation	glmed2_r.activation	glmed3_r.activation	glmin1_r.activation	glmin2_r.activation	glmin3_r.activation	glmin3_r.fiber_length	grac_r.activation	iliacus_r.activation	perbrev_r.activation	perbrev_r.fiber_length	perlong_r.activation	perlong_r.fiber_length	piri_r.activation	piri_r.fiber_length	psoas_r.activation	recfem_r.activation	recfem_r.fiber_length	sart_r.activation	semimem_r.activation	semimem_r.fiber_length	semiten_r.activation	semiten_r.fiber_length	soleus_r.activation	soleus_r.fiber_length	tfl_r.activation	tfl_r.fiber_length	tibant_r.activation	tibant_r.fiber_length	tibpost_r.activation	tibpost_r.fiber_length	vasint_r.activation	vasint_r.fiber_length	vaslat_r.activation	vaslat_r.fiber_length	vasmed_r.activation	vasmed_r.fiber_length	addbrev_l.activation	addlong_l.activation	addlong_l.fiber_length	addmagDist_l.activation	addmagIsch_l.activation	addmagIsch_l.fiber_length	addmagMid_l.activation	addmagProx_l.activation	bflh_l.activation	bflh_l.fiber_length	bfsh_l.activation	edl_l.activation	edl_l.fiber_length	ehl_l.activation	ehl_l.fiber_length	fdl_l.activation	fdl_l.fiber_length	fhl_l.activation	fhl_l.fiber_length	gaslat_l.activation	gaslat_l.fiber_length	gasmed_l.activation	gasmed_l.fiber_length	glmax1_l.activation	glmax2_l.activation	glmax3_l.activation	glmed1_l.activation	glmed2_l.activation	glmed3_l.activation	glmin1_l.activation	glmin2_l.activation	glmin3_l.activation	glmin3_l.fiber_length	grac_l.activation	iliacus_l.activation	perbrev_l.activation	perbrev_l.fiber_length	perlong_l.activation	perlong_l.fiber_length	piri_l.activation	piri_l.fiber_length	psoas_l.activation	recfem_l.activation	recfem_l.fiber_length	sart_l.activation	semimem_l.activation	semimem_l.fiber_length	semiten_l.activation	semiten_l.fiber_length	soleus_l.activation	soleus_l.fiber_length	tfl_l.activation	tfl_l.fiber_length	tibant_l.activation	tibant_l.fiber_length	tibpost_l.activation	tibpost_l.fiber_length	vasint_l.activation	vasint_l.fiber_length	vaslat_l.activation	vaslat_l.fiber_length	vasmed_l.activation	vasmed_l.fiber_length
      0.00309580	     20.00000000	     -0.00000000	     -0.00000000	      0.25000000	    -25.12009904	     -0.00053813	     -0.00074977	     -0.02297178	      0.64220018	      0.00000240	     87.83542591	    -18.07044845	     -4.89552857	     88.98244525	     88.98244525	     25.70420552	     -0.12468188	     -0.00000000	     87.83576854	    -18.07364841	     -4.88840638	     88.98294207	     88.98294207	     25.73136052	     -0.00000000	     -0.00000000	     -0.17104311	      0.00049981	      0.00074620	     89.03418141	     -0.00149450	     89.84109293	      0.14349447	      0.13828636	      0.00000000	     -0.00000000	     89.03422122	     -0.00154838	     89.83501997	      0.14358570	      0.13912241	      0.00000000	     -0.00000000	     -0.00000000	     -0.00000000	     -0.00000000	      0.00000000	     88.29760980	     -0.33044240	     -0.45956946	      0.01826031	      0.12932869	      0.00148517	    -96.14938435	     -4.81898325	      3.43991365	    -11.93229694	    -11.93229694	   -504.99904616	    -77.69134897	     -0.00000000	    -95.93646182	     -6.79749602	      7.86021638	    -11.62749068	    -11.62749068	   -488.19396650	     -0.00000000	     -0.00000000	   -110.30341753	      0.30425394	      0.45822846	     22.85657138	     -0.94556637	     -0.00000000	      2.64652961	     -0.68707580	     -0.00000000	     -0.00000000	     22.88040940	     -0.98186601	     -0.49540801	      2.70542949	     -0.15045281	     -0.00000000	     -0.00000000	      0.01000000	      0.01000000	      0.09804359	      0.01000000	      0.01000000	      0.21506909	      0.01000000	      0.01000000	      0.01000000	      0.12213419	      0.01000000	      0.01000000	      0.05303836	      0.01000000	      0.06070100	      0.01000000	      0.04752063	      0.01000000	      0.05598174	      0.01000000	      0.05460643	      0.01000000	      0.04349578	      0.01000000	      0.01000000	      0.01000000	      0.01000000	      0.01000000	      0.01000000	      0.01000000	      0.01000000	      0.01000000	      0.04528113	      0.01000000	      0.01000000	      0.01000000	      0.05058606	      0.01000000	      0.05719936	      0.01000000	      0.03212291	      0.01000000	      0.01000000	      0.05421945	      0.01000000	      0.01000000	      0.07921198	      0.01000000	      0.23091371	      0.01000000	      0.06025440	      0.01000000	      0.02401564	      0.01000000	      0.04706250	      0.01000000	      0.04188401	      0.01000000	      0.13414584	      0.01000000	      0.13068909	      0.01000000	      0.12855951	      0.01000000	      0.01000000	      0.09804603	      0.01000000	      0.01000000	      0.21506987	      0.01000000	      0.01000000	      0.01000000	      0.12213433	      0.01000000	      0.01000000	      0.05304667	      0.01000000	      0.06069398	      0.01000000	      0.04751615	      0.01000000	      0.05597723	      0.01000000	      0.05460763	      0.01000000	      0.04349817	      0.01000000	      0.01000000	      0.01000000	      0.01000000	      0.01000000	      0.01000000	      0.01000000	      0.01000000	      0.01000000	      0.04527745	      0.01000000	      0.01000000	      0.01000000	      0.05061461	      0.01000000	      0.05721511	      0.01000000	      0.03212137	      0.01000000	      0.01000000	      0.05421936	      0.01000000	      0.01000000	      0.07921195	      0.01000000	      0.23091394	      0.01000000	      0.06025706	      0.01000000	      0.02401564	      0.01000000	      0.04703446	      0.01000000	      0.04187863	      0.01000000	      0.13414596	      0.01000000	      0.13068919	      0.01000000	      0.12855961
      0.00405893	     20.00000000	     -0.00000000	     -0.00000000	      0.25000000	    -25.02191740	     -0.00089635	     -0.00124718	     -0.02295146	      0.64234414	      0.00000402	     87.72830387	    -18.07580858	     -4.89177297	     88.96873533	     88.96873533	     25.14767295	     -0.20951323	     -0.00000000	     87.72887886	    -18.08115903	     -4.87983517	     88.96956177	     88.96956177	     25.19311831	     -0.00000000	     -0.00000000	     -0.29368378	      0.00082788	      0.00124285	     89.05958291	     -0.00254498	     89.84109293	      0.14643462	      0.13752098	     -0.00000000	     -0.00000000	     89.05964920	     -0.00263921	     89.83447020	      0.14659130	      0.13895267	      0.00000000	     -0.00000000	     -0.00000000	     -0.00000000	     -0.00000000	      0.00000000	    115.56282335	     -0.41181748	     -0.57095777	      0.02391810	      0.16962977	      0.00186060	   -126.31610849	     -6.31057515	      4.33962425	    -16.63499101	    -16.63499101	   -649.63545316	    -98.19206113	     -0.00000000	   -126.04740888	     -8.78907877	      9.90132996	    -16.25745114	    -16.25745114	   -628.52421224	     -0.00000000	     -0.00000000	   -144.34057105	      0.37516374	      0.57089575	     29.88445035	     -1.23560451	     -0.00000000	      3.45827344	     -0.90170225	     -0.00000000	     -0.00000000	     29.91560774	     -1.28306900	     -0.64622271	      3.53524467	     -0.20149787	     -0.00000000	     -0.00000000	      0.01000000	      0.01000000	      0.09803399	      0.01000000	      0.01000000	      0.21500045	      0.01000000	      0.01000000	      0.01000000	      0.12209375	      0.01000000	      0.01000000	      0.05330148	      0.01000000	      0.06101883	      0.01000000	      0.04751708	      0.01000000	      0.05595855	      0.01000000	      0.05447188	      0.01000000	      0.04337867	      0.01000000	      0.01000000	      0.01000000	      0.01000000	      0.01000000	      0.01000000	      0.01000000	      0.01000000	      0.01000000	      0.04526214	      0.01000000	      0.01000000	      0.01000000	      0.05053256	      0.01000000	      0.05715340	      0.01000000	      0.03210627	      0.01000000	      0.01000000	      0.05425022	      0.01000000	      0.01000000	      0.07918484	      0.01000000	      0.23085316	      0.01000000	      0.06008395	      0.01000000	      0.02401564	      0.01000000	      0.04743360	      0.01000000	      0.04187472	      0.01000000	      0.13414203	      0.01000000	      0.13068569	      0.01000000	      0.12855624	      0.01000000	      0.01000000	      0.09803855	      0.01000000	      0.01000000	      0.21500181	      0.01000000	      0.01000000	      0.01000000	      0.12209403	      0.01000000	      0.01000000	      0.05331738	      0.01000000	      0.06100557	      0.01000000	      0.04750758	      0.01000000	      0.05594837	      0.01000000	      0.05447414	      0.01000000	      0.04338312	      0.01000000	      0.01000000	      0.01000000	      0.01000000	      0.01000000	      0.01000000	      0.01000000	      0.01000000	      0.01000000	      0.04525531	      0.01000000	      0.01000000	      0.01000000	      0.05059336	      0.01000000	      0.05718972	      0.01000000	      0.03210307	      0.01000000	      0.01000000	      0.05424997	      0.01000000	      0.01000000	      0.07918478	      0.01000000	      0.23085357	      0.01000000	      0.06008878	      0.01000000	      0.02401564	      0.01000000	      0.04738323	      0.01000000	      0.04186302	      0.01000000	      0.13414225	      0.01000000	      0.13068589	      0.01000000	      0.12855643
      0.00502207	     20.00000000	     -0.00000000	     -0.00000000	      0.25000000	    -24.89752975	     -0.00132862	     -0.00184532	     -0.02292572	      0.64252696	      0.00000598	     87.59206638	    -18.08260238	     -4.88721020	     88.95020674	     88.95020674	     24.45479249	     -0.31333674	     -0.00000000	     87.59292495	    -18.09056120	     -4.86940696	     88.95142646	     88.95142646	     24.52250188	     -0.00000000	     -0.00000000	     -0.44903240	      0.00121918	      0.00184201	     89.09173533	     -0.00387440	     89.84109293	      0.15015544	      0.13655130	     -0.00000000	     -0.00000000	     89.09183512	     -0.00401966	     89.83377486	      0.15039490	      0.13873638	      0.00000000	     -0.00000000	     -0.00000000	     -0.00000000	      0.00000000	      0.00000000	    142.71588046	     -0.48446015	     -0.66903768	      0.02950740	      0.21000672	      0.00219958	   -156.60829756	     -7.79613202	      5.11205284	    -21.94419950	    -21.94419950	   -788.18526086	   -117.17448447	     -0.00000000	   -156.28896082	    -10.72674573	     11.71475504	    -21.50738381	    -21.50738381	   -763.11569442	      0.00000000	     -0.00000000	   -178.22281805	      0.43573654	      0.67144080	     36.87618898	     -1.52498463	     -0.00000000	      4.26815798	     -1.11052752	     -0.00000000	     -0.00000000	     36.91457697	     -1.58349013	     -0.79801549	      4.36309784	     -0.24593016	     -0.00000000	     -0.00000000	      0.01000000	      0.01000000	      0.09802121	      0.01000000	      0.01000000	      0.21491088	      0.01000000	      0.01000000	      0.01000000	      0.12203786	      0.01000000	      0.01000000	      0.05365075	      0.01000000	      0.06143345	      0.01000000	      0.04751153	      0.01000000	      0.05592216	      0.01000000	      0.05430110	      0.01000000	      0.04323318	      0.01000000	      0.01000000	      0.01000000	      0.01000000	      0.01000000	      0.01000000	      0.01000000	      0.01000000	      0.01000000	      0.04523690	      0.01000000	      0.01000000	      0.01000000	      0.05045760	      0.01000000	      0.05708153	      0.01000000	      0.03208224	      0.01000000	      0.01000000	      0.05430278	      0.01000000	      0.01000000	      0.07914453	      0.01000000	      0.23077362	      0.01000000	      0.05986313	      0.01000000	      0.02401564	      0.01000000	      0.04791034	      0.01000000	      0.04186051	      0.01000000	      0.13413673	      0.01000000	      0.13068095	      0.01000000	      0.12855169	      0.01000000	      0.01000000	      0.09802850	      0.01000000	      0.01000000	      0.21491297	      0.01000000	      0.01000000	      0.01000000	      0.12203832	      0.01000000	      0.01000000	      0.05367632	      0.01000000	      0.06141195	      0.01000000	      0.04749442	      0.01000000	      0.05590245	      0.01000000	      0.05430382	      0.01000000	      0.04323834	      0.01000000	      0.01000000	      0.01000000	      0.01000000	      0.01000000	      0.01000000	      0.01000000	      0.01000000	      0.01000000	      0.04522606	      0.01000000	      0.01000000	      0.01000000	      0.05056261	      0.01000000	      0.05715041	      0.01000000	      0.03207674	      0.01000000	      0.01000000	      0.05430228	      0.01000000	      0.01000000	      0.07914443	      0.01000000	      0.23077427	      0.01000000	      0.05987073	      0.01000000	      0.02401564	      0.01000000	      0.04783200	      0.01000000	      0.04183856	      0.01000000	      0.13413707	      0.01000000	      0.13068125	      0.01000000	      0.12855198
      0.00612578	     20.00000000	     -0.00000000	      0.00000000	      0.25000000	    -24.72289995	     -0.00190493	     -0.00263889	     -0.02288967	      0.64278434	      0.00000860	     87.39998235	    -18.09214309	     -4.88116323	     88.92226967	     88.92226967	     23.50061061	     -0.45391426	     -0.00000000	     87.40122333	    -18.10359852	     -4.85546524	     88.92400169	     88.92400169	     23.59830884	     -0.00000000	     -0.00000000	     -0.66708219	      0.00173305	      0.00264052	     89.13684042	     -0.00574072	     89.84109293	      0.15537896	      0.13519902	     -0.00000000	     -0.00000000	     89.13698713	     -0.00595751	     89.83279657	      0.15573459	      0.13844380	     -0.00000000	     -0.00000000	     -0.00000000	     -0.00000000	      0.00000000	      0.00000000	    173.70456867	     -0.55837759	     -0.76634104	      0.03580154	      0.25642003	      0.00254776	   -191.49828145	     -9.49045053	      5.80876482	    -28.82946800	    -28.82946800	   -939.47554993	   -137.26678615	     -0.00000000	   -191.12505007	    -12.88701365	     13.49229386	    -28.34063632	    -28.34063632	   -910.27977576	     -0.00000000	     -0.00000000	   -216.86780665	      0.49354715	      0.77320287	     44.85134038	     -1.85711487	     -0.00000000	      5.19774850	     -1.33729872	     -0.00000000	     -0.00000000	     44.89793601	     -1.92817037	     -0.97549859	      5.31329157	     -0.28095470	     -0.00000000	     -0.00000000	      0.01000000	      0.01000000	      0.09800277	      0.01000000	      0.01000000	      0.21478668	      0.01000000	      0.01000000	      0.01000000	      0.12195455	      0.01000000	      0.01000000	      0.05414961	      0.01000000	      0.06202100	      0.01000000	      0.04750211	      0.01000000	      0.05586036	      0.01000000	      0.05409908	      0.01000000	      0.04306305	      0.01000000	      0.01000000	      0.01000000	      0.01000000	      0.01000000	      0.01000000	      0.01000000	      0.01000000	      0.01000000	      0.04520039	      0.01000000	      0.01000000	      0.01000000	      0.05034818	      0.01000000	      0.05696700	      0.01000000	      0.03204558	      0.01000000	      0.01000000	      0.05439173	      0.01000000	      0.01000000	      0.07908022	      0.01000000	      0.23065938	      0.01000000	      0.05954926	      0.01000000	      0.02401564	      0.01000000	      0.04858113	      0.01000000	      0.04183679	      0.01000000	      0.13412857	      0.01000000	      0.13067363	      0.01000000	      0.12854469	      0.01000000	      0.01000000	      0.09801386	      0.01000000	      0.01000000	      0.21478952	      0.01000000	      0.01000000	      0.01000000	      0.12195530	      0.01000000	      0.01000000	      0.05418878	      0.01000000	      0.06198736	      0.01000000	      0.04747244	      0.01000000	      0.05582460	      0.01000000	      0.05410181	      0.01000000	      0.04306820	      0.01000000	      0.01000000	      0.01000000	      0.01000000	      0.01000000	      0.01000000	      0.01000000	      0.01000000	      0.01000000	      0.04518410	      0.01000000	      0.01000000	      0.01000000	      0.05051499	      0.01000000	      0.05708548	      0.01000000	      0.03203688	      0.01000000	      0.01000000	      0.05439086	      0.01000000	      0.01000000	      0.07908006	      0.01000000	      0.23066039	      0.01000000	      0.05956081	      0.01000000	      0.02401564	      0.01000000	      0.04846390	      0.01000000	      0.04179689	      0.01000000	      0.13412907	      0.01000000	      0.13067408	      0.01000000	      0.12854512
